HIERARCHY
ROOT Hips
{
	OFFSET 0.000000 0.000000 0.000000
	CHANNELS 6 Xposition Yposition Zposition Zrotation Yrotation Xrotation 
	JOINT LeftUpLeg_virtual
	{
		OFFSET 0.000000 0.000000 0.000000
		CHANNELS 3 Zrotation Yrotation Xrotation
		JOINT LeftUpLeg
		{
			OFFSET 10.205400 -3.823500 0.155100
			CHANNELS 3 Zrotation Yrotation Xrotation
			JOINT LeftLeg
			{
				OFFSET 0.708757 -12.982077 0.567790
				CHANNELS 3 Zrotation Yrotation Xrotation
				JOINT LeftFoot
				{
					OFFSET -0.708756 -10.717838 -2.184338
					CHANNELS 3 Zrotation Yrotation Xrotation
					JOINT LeftToeBase
					{
						OFFSET 0.108149 -7.191104 7.560241
						CHANNELS 3 Zrotation Yrotation Xrotation
						End Site
						{
							OFFSET 0.000000 0.000000 0.000000
						}
					}
				}
			}
		}
	}
	JOINT RightUpLeg_virtual
	{
		OFFSET 0.000000 0.000000 0.000000
		CHANNELS 3 Zrotation Yrotation Xrotation
		JOINT RightUpLeg
		{
			OFFSET -10.205400 -3.823500 0.005500
			CHANNELS 3 Zrotation Yrotation Xrotation
			JOINT RightLeg
			{
				OFFSET -0.708756 -12.982134 0.610632
				CHANNELS 3 Zrotation Yrotation Xrotation
				JOINT RightFoot
				{
					OFFSET 0.708754 -10.717769 -1.945823
					CHANNELS 3 Zrotation Yrotation Xrotation
					JOINT RightToeBase
					{
						OFFSET -0.108140 -7.191069 7.372968
						CHANNELS 3 Zrotation Yrotation Xrotation
						End Site
						{
							OFFSET 0.000000 0.000000 0.000000
						}
					}
				}
			}
		}
	}
	JOINT Spine_virtual
	{
		OFFSET 0.000000 0.000000 0.000000
		CHANNELS 3 Zrotation Yrotation Xrotation
		JOINT Spine
		{
			OFFSET 0.000000 6.876099 0.125700
			CHANNELS 3 Zrotation Yrotation Xrotation
			JOINT Spine1
			{
				OFFSET 0.000000 8.022060 0.146608
				CHANNELS 3 Zrotation Yrotation Xrotation
				JOINT Spine2
				{
					OFFSET 0.000000 9.168068 0.167552
					CHANNELS 3 Zrotation Yrotation Xrotation
					JOINT Neck_virtual
					{
						OFFSET 0.000000 0.000000 0.000000
						CHANNELS 3 Zrotation Yrotation Xrotation
						JOINT Neck
						{
							OFFSET 0.000000 10.314075 0.188496
							CHANNELS 3 Zrotation Yrotation Xrotation
							JOINT Head
							{
								OFFSET 0.000000 7.643700 -2.377400
								CHANNELS 3 Zrotation Yrotation Xrotation
								End Site
								{
									OFFSET 0.000000 0.000000 0.000000
								}
							}
						}
					}
					JOINT LeftShoulder_virtual
					{
						OFFSET 0.000000 0.000000 0.000000
						CHANNELS 3 Zrotation Yrotation Xrotation
						JOINT LeftShoulder
						{
							OFFSET 4.392200 8.824978 0.174984
							CHANNELS 3 Zrotation Yrotation Xrotation
							JOINT LeftArm
							{
								OFFSET 8.771219 -2.981674 -0.026999
								CHANNELS 3 Zrotation Yrotation Xrotation
								JOINT LeftForeArm
								{
									OFFSET 8.512804 0.000000 -0.000000
									CHANNELS 3 Zrotation Yrotation Xrotation
									JOINT LeftHand
									{
										OFFSET 18.484802 0.000000 -0.000000
										CHANNELS 3 Zrotation Yrotation Xrotation
										End Site
										{
											OFFSET 0.000000 0.000000 0.000000
										}
									}
								}
							}
						}
					}
					JOINT RightShoulder_virtual
					{
						OFFSET 0.000000 0.000000 0.000000
						CHANNELS 3 Zrotation Yrotation Xrotation
						JOINT RightShoulder
						{
							OFFSET -4.392200 8.824993 0.141379
							CHANNELS 3 Zrotation Yrotation Xrotation
							JOINT RightArm
							{
								OFFSET -8.771282 -2.981682 -0.094208
								CHANNELS 3 Zrotation Yrotation Xrotation
								JOINT RightForeArm
								{
									OFFSET -8.494598 0.000000 0.000000
									CHANNELS 3 Zrotation Yrotation Xrotation
									JOINT RightHand
									{
										OFFSET -18.483803 0.000000 0.000001
										CHANNELS 3 Zrotation Yrotation Xrotation
										End Site
										{
											OFFSET 0.000000 0.000000 0.000000
										}
									}
								}
							}
						}
					}
				}
			}
		}
	}
}
MOTION
Frames: 10
Frame Time: 0.033333
9.785237 36.559383 79.004501 179.805468 11.989809 179.829633 -2.849852 -4.203441 6.941525 -0.786741 -3.399209 -17.988014 13.791170 5.322696 18.937927 -1.640764 -3.653735 12.228771 0.000000 0.000000 0.000000 2.025264 -2.445657 3.190618 6.750943 4.342603 -8.214825 -7.202531 -1.161227 11.503370 4.391815 8.930270 11.178598 0.000000 0.000000 0.000000 -0.115525 -0.014690 -4.522064 3.164376 -2.960158 -12.959244 -1.745564 -1.326516 8.467228 0.025097 0.057329 -0.005538 -2.254282 1.029687 10.459841 -4.742554 -1.052039 7.160699 0.000000 0.000000 0.000000 -0.341181 1.723941 7.852260 -12.736224 -6.910417 2.445617 -55.003657 25.727704 17.782594 1.167826 -47.644548 8.333923 0.000000 0.000000 0.000000 -4.839032 2.934648 7.162276 27.500433 3.608370 2.911915 49.301531 -20.924409 26.133390 -9.964243 37.880612 -7.113877 0.000000 0.000000 0.000000 
9.771048 36.563545 79.012184 179.725308 12.262504 179.805754 -2.666323 -4.215390 7.190708 -0.704101 -3.947101 -17.859626 13.772028 4.833436 18.699989 -2.051087 -4.003780 11.623525 0.000000 0.000000 0.000000 2.133266 -2.465847 3.095629 6.858003 3.846871 -8.419662 -7.157486 -1.649938 11.504705 4.003909 8.542867 11.274629 0.000000 0.000000 0.000000 -0.117701 -0.038887 -4.455927 3.155596 -2.871112 -12.927350 -1.735184 -1.273584 8.431421 0.063597 0.111824 0.064745 -2.265666 1.026151 10.380036 -4.719051 -1.046743 7.115481 0.000000 0.000000 0.000000 -0.359891 1.785903 7.798939 -12.806876 -6.845382 2.488023 -54.987749 25.898281 17.798551 1.182697 -47.391418 8.353057 0.000000 0.000000 0.000000 -4.828639 2.963946 7.085009 27.474993 3.651696 2.923597 49.273398 -20.953537 26.168777 -10.079548 37.826441 -7.189429 0.000000 0.000000 0.000000 
9.756913 36.557209 79.001953 179.714353 12.309954 179.802066 -2.679428 -4.254540 7.237321 -0.778551 -3.924025 -17.938302 13.844192 4.756728 18.864784 -1.989957 -3.971505 11.521994 0.000000 0.000000 0.000000 2.098921 -2.484618 3.142041 6.854613 3.864817 -8.525977 -7.194803 -1.649704 11.575249 4.079059 8.564522 11.290232 0.000000 0.000000 0.000000 -0.132455 -0.050751 -4.400944 3.200601 -2.777438 -12.912326 -1.731488 -1.255512 8.412182 0.067295 0.115415 0.053919 -2.260475 1.019372 10.348474 -4.774612 -1.050440 7.105387 0.000000 0.000000 0.000000 -0.372153 1.732105 7.799645 -12.809984 -6.831602 2.508944 -54.998633 26.213364 17.824070 1.223539 -47.111858 8.342541 0.000000 0.000000 0.000000 -4.817003 2.939220 7.068052 27.412309 3.623306 2.949460 49.442609 -21.101026 26.075465 -10.071980 37.805667 -7.136536 0.000000 0.000000 0.000000 
9.739802 36.550968 78.972557 179.676582 12.284198 179.829401 -2.715621 -4.389065 7.244967 -0.895315 -3.853507 -17.931086 13.941677 4.661732 18.995381 -1.939730 -3.939963 11.434914 0.000000 0.000000 0.000000 2.036129 -2.588449 3.172246 6.844273 3.903582 -8.644462 -7.242624 -1.642935 11.680390 4.174105 8.574451 11.312006 0.000000 0.000000 0.000000 -0.173479 -0.063475 -4.404266 3.263462 -2.690372 -12.912979 -1.785242 -1.316062 8.405536 0.087559 0.092016 0.064916 -2.226253 0.990425 10.313184 -4.825337 -1.016788 7.118512 0.000000 0.000000 0.000000 -0.417301 1.716499 7.782271 -12.829498 -6.836676 2.558395 -54.886212 26.393769 17.880097 1.320983 -46.897858 8.283117 0.000000 0.000000 0.000000 -4.875827 2.903218 7.069487 27.284333 3.574004 2.986243 49.696152 -21.375270 25.951533 -10.100948 37.760380 -7.151976 0.000000 0.000000 0.000000 
9.718966 36.545853 78.929573 179.694436 12.403108 179.847924 -2.710803 -4.439249 7.252239 -1.020576 -3.771028 -17.963158 14.026950 4.550455 19.228309 -1.866291 -3.875864 11.302876 0.000000 0.000000 0.000000 2.011413 -2.579287 3.161613 6.841269 3.926159 -8.734263 -7.308505 -1.649277 11.808189 4.316448 8.597193 11.373532 0.000000 0.000000 0.000000 -0.184333 -0.131672 -4.396327 3.352970 -2.579742 -12.861805 -1.743579 -1.360524 8.392897 0.025060 0.071317 0.074162 -2.266783 1.019197 10.273168 -4.914418 -0.935819 7.160836 0.000000 0.000000 0.000000 -0.480391 1.732982 7.733759 -12.788467 -6.804388 2.639007 -54.810697 26.477667 17.989228 1.346302 -46.765916 8.320186 0.000000 0.000000 0.000000 -4.893545 2.955645 7.065333 27.119198 3.605828 3.040089 50.031040 -21.634004 25.789116 -10.149416 37.666625 -7.129422 0.000000 0.000000 0.000000 
9.691213 36.543297 78.879730 179.733436 12.519176 179.887102 -2.681549 -4.482343 7.242523 -1.173107 -3.659681 -17.943552 14.134794 4.448191 19.403831 -1.835273 -3.816484 11.274220 0.000000 0.000000 0.000000 1.999960 -2.580343 3.141325 6.815135 3.940737 -8.794593 -7.333378 -1.628456 11.881386 4.451893 8.607454 11.482792 0.000000 0.000000 0.000000 -0.107688 -0.210909 -4.418966 3.423083 -2.413924 -12.812781 -1.837057 -1.316523 8.419275 0.057776 0.112858 0.016836 -2.315932 1.042242 10.297182 -5.114303 -0.862670 7.300786 0.000000 0.000000 0.000000 -0.503860 1.622226 7.794381 -12.725818 -6.960708 2.705817 -54.710198 26.371951 18.142972 1.352974 -46.742290 8.379228 0.000000 0.000000 0.000000 -4.921685 2.870052 7.073330 26.949290 3.531391 3.129552 50.365047 -21.850141 25.716086 -10.224067 37.558777 -7.118167 0.000000 0.000000 0.000000 
9.666822 36.542355 78.822662 179.708766 12.675830 -179.999199 -2.715813 -4.545762 7.232669 -1.323081 -3.561539 -17.985208 14.188742 4.333874 19.606201 -1.734281 -3.677370 11.217259 0.000000 0.000000 0.000000 1.972455 -2.552322 3.098035 6.753144 3.969146 -8.875383 -7.423174 -1.672419 12.036991 4.638045 8.694789 11.480683 0.000000 0.000000 0.000000 -0.117765 -0.405630 -4.484017 3.534973 -2.213994 -12.783347 -1.871273 -1.328991 8.405304 0.029806 0.206857 0.040933 -2.363236 0.880470 10.274298 -5.339781 -0.783097 7.497816 0.000000 0.000000 0.000000 -0.494548 1.574956 7.798269 -12.759450 -7.107745 2.835166 -54.492851 26.140777 18.420202 1.295932 -46.876613 8.524853 0.000000 0.000000 0.000000 -4.953416 2.787051 7.095049 26.750103 3.617016 3.126671 50.778191 -22.035703 25.446939 -10.063896 37.451580 -6.924121 0.000000 0.000000 0.000000 
9.643483 36.544353 78.766754 179.723478 12.885035 -179.968723 -2.698855 -4.536857 7.247415 -1.475068 -3.463725 -18.005746 14.257730 4.222283 19.694837 -1.674903 -3.536697 11.249057 0.000000 0.000000 0.000000 1.978068 -2.484746 3.111220 6.690143 3.999600 -8.930713 -7.450597 -1.717519 12.103812 4.809238 8.746267 11.562409 0.000000 0.000000 0.000000 -0.084828 -0.437149 -4.485982 3.630868 -2.008024 -12.771968 -1.892311 -1.262379 8.407282 0.050716 0.072645 0.086463 -2.385387 1.014817 10.231790 -5.555556 -0.610522 7.845247 0.000000 0.000000 0.000000 -0.640952 1.519268 7.703099 -12.688918 -7.153367 2.946746 -54.391832 25.850044 18.407998 1.209536 -47.146641 8.710183 0.000000 0.000000 0.000000 -4.962294 2.712419 7.084811 26.558555 3.763250 3.188091 51.073218 -22.177593 25.368851 -10.016773 37.183502 -6.902334 0.000000 0.000000 0.000000 
9.621814 36.547802 78.720657 179.725104 13.024608 -179.844372 -2.658644 -4.587734 7.215038 -1.591915 -3.519954 -18.034655 14.364272 4.182892 19.759812 -1.654258 -3.384566 11.459439 0.000000 0.000000 0.000000 2.007206 -2.452442 3.122760 6.608046 4.015794 -9.049320 -7.433017 -1.721639 12.145430 4.929148 8.793314 11.601654 0.000000 0.000000 0.000000 -0.066829 -0.304503 -4.534174 3.716640 -1.921131 -12.863853 -1.998876 -1.562508 8.442097 0.005566 0.084435 0.065410 -2.410975 0.943329 10.213782 -5.806592 -0.373420 8.259834 0.000000 0.000000 0.000000 -0.671477 1.443786 7.692501 -12.624147 -7.079670 3.063413 -54.258852 25.565839 18.312091 0.990188 -47.650296 9.050999 0.000000 0.000000 0.000000 -4.986783 2.688156 7.070059 26.403445 3.879797 3.245011 51.343932 -22.277376 25.126456 -9.871412 36.904789 -6.782196 0.000000 0.000000 0.000000 
9.604929 36.553219 78.672981 179.709585 13.288501 -179.895694 -2.676321 -4.536643 7.283887 -1.747828 -3.370667 -17.988676 14.431093 4.080752 19.732565 -1.635919 -3.238765 11.543777 0.000000 0.000000 0.000000 2.000395 -2.382553 3.220255 6.516379 4.084159 -9.101314 -7.441853 -1.734256 12.212518 5.056308 8.861441 11.684316 0.000000 0.000000 0.000000 -0.062742 -0.287212 -4.461447 3.792565 -1.647621 -12.924986 -2.040157 -1.561235 8.464907 0.013574 0.165313 0.061331 -2.491359 0.590437 10.235623 -6.137587 -0.140463 8.916838 0.000000 0.000000 0.000000 -0.739775 1.254502 7.718458 -12.577074 -7.012813 3.068885 -54.032158 25.348186 18.408880 0.889479 -48.390582 9.269739 0.000000 0.000000 0.000000 -5.016244 2.475970 7.114342 26.307966 3.918366 3.299362 51.520373 -22.423016 24.728369 -9.627964 36.617293 -6.676269 0.000000 0.000000 0.000000 
